<?xml version="1.0" encoding="utf-8"?>
<!-- Generator: Adobe Illustrator 21.0.0, SVG Export Plug-In . SVG Version: 6.00 Build 0)  -->
<svg 
	version="1.1" 
	xmlns="http://www.w3.org/2000/svg" 
	xmlns:xlink="http://www.w3.org/1999/xlink" 
	x="0px" 
	y="0px"
	viewBox="0 0 108.8 80.5"
	xml:space="preserve"
	stroke="#232226"
	fill="white"
>
	<g>
		<path 
			d="M28.7,2.3h73.9c2.2,0,4,1.8,4,4v54.1c0,2.2-1.8,4-4,4H28.9
			c-2.2,0-4-1.8-4-4L24.7,6.3C24.7,4.1,26.5,2.3,28.7,2.3z"
		/>
		<path d="M52.3,40.3l21.7,0"/>
		<path d="M52.3,45.4h21.8"/>
		<path d="M17.7,31.3h24.8l0,23H17.6L17.7,31.3z"/>
		<path 
			d="M9.9,12.3h72.3c2.9,0,5.2,2.2,5.4,5.1l0.2,51.8c-0.1,2.9-2.5,5.1-5.4,5.1
			H9.7c-2.8,0-5.1-2.3-5.1-5.1l0.1-51.8C4.8,14.6,7,12.3,9.9,12.3z"
		/>
	</g>
</svg>
