<?xml version="1.0" encoding="utf-8"?>
<!-- Generator: Adobe Illustrator 21.0.0, SVG Export Plug-In . SVG Version: 6.00 Build 0)  -->
<svg 
	version="1.1" 
	id="Слой_1" 
	xmlns="http://www.w3.org/2000/svg" 
	xmlns:xlink="http://www.w3.org/1999/xlink" 
	x="0px" 
	y="0px"
	viewBox="0 0 85.2 108.1" 
	xml:space="preserve"
	stroke="#232226"
	fill="white"
>
	<g>
		<path 
			d="M25.4,4.5h51.3c3,0.1,5.4,2.6,5.3,5.6c0,0,0,0,0,0l-0.6,74
			c0,3-1.6,5.3-4.7,5.3H25.4c-3,0-4.9-2.1-4.9-5.2v-74C20.5,7.3,22.4,4.5,25.4,4.5z"
		/>
		<path 
			d="M10.2,17.4h51.4c3,0,5.6,2,5.6,5v74c0,3-2.6,6-5.6,6H10.2
			c-3,0-4.9-2.9-4.9-5.9v-74C5.4,19.5,7.2,17.4,10.2,17.4z"
		/>
		<g>
			<rect x="35.3" y="28.4" width="24.9" height="10"/>
			<rect x="12.3" y="28.4" width="19" height="49"/>
			<path d="M35.6,41.5h24.5"/>
			<path d="M35.6,44.4h24.5"/>
			<path d="M35.7,47.5H60"/>
			<rect x="40.4" y="50.5" width="14.9" height="6.9"/>
		</g>
	</g>
</svg>
