<?xml version="1.0" encoding="utf-8"?>
<!-- Generator: Adobe Illustrator 21.0.0, SVG Export Plug-In . SVG Version: 6.00 Build 0)  -->
<svg 
	version="1.1" 
	id="иконка" 
	xmlns="http://www.w3.org/2000/svg" 
	xmlns:xlink="http://www.w3.org/1999/xlink" 
	x="0px"
	y="0px" 
	viewBox="0 0 93.1 79" 
	style="enable-background:new 0 0 93.1 79;" 
	xml:space="preserve"
	stroke="#232226"
	fill="white"
>
<g>
	<path d="M13.3,24.9c0,0,56-2.6,68.9-22.7
		c0,2.7,0,29.1,0,35.6c0,1.2,0.2,33.4,0,33.3C66.4,47.5,13.7,48.3,13.7,48.3C7.2,48.3,2,43.1,2,36.6c0,0,0,0,0,0
		c-0.2-6.3,4.8-11.6,11.1-11.7C13.2,24.9,13.2,24.9,13.3,24.9z"/>
	<path d="M33.8,24.1v24.2"/>
	<path d="M16.4,48.6l12.9,23.2h9.8L28.5,49.3"/>
</g>
<g>
	<path 
		d="M21.1,28.3c0,0,56-2.6,68.9-22.7
		c0,2.7,0,29.1,0,35.6c0,1.2,0.2,33.4,0,33.3C74.1,50.9,21.5,51.8,21.5,51.8C15,51.8,9.7,46.5,9.7,40c-0.2-6.3,4.8-11.6,11.1-11.7
		C20.9,28.3,21,28.3,21.1,28.3z"
	/>
	<path 
		d="M24,51.8l13,23.4h9.8L36.2,52.5c-0.2,0-2.4-0.3-5.7-0.4c-1.9-0.1-2-0.1-3.1-0.1
		C25.4,51.8,24,51.8,24,51.8z"
	/>
</g>
</svg>
