<?xml version="1.0" encoding="utf-8"?>
<!-- Generator: Adobe Illustrator 21.0.0, SVG Export Plug-In . SVG Version: 6.00 Build 0)  -->
<svg 
	version="1.1" 
	id="Слой_1" 
	xmlns="http://www.w3.org/2000/svg" 
	xmlns:xlink="http://www.w3.org/1999/xlink" 
	x="0px" 
	y="0px"
	viewBox="0 0 102.4 99.8" 
	style="enable-background:new 0 0 102.4 99.8;" 
	xml:space="preserve"
	stroke="#232226"
	fill="white"
>
	<g>
		<!-- <ellipse cx="56.2" cy="44.2" rx="25.7" ry="25.4"/> -->
		<path d="M20,41.3c7.6-0.5,14.2,5.3,14.6,12.9c0.5,7.6-5.3,14.2-12.9,14.6
			c-7.6,0.5-14.2-5.3-14.6-12.9l0,0C6.7,48.3,12.4,41.8,20,41.3z"/>
		<path d="M55.1,70.2c7.6-0.5,14.2,5.3,14.6,12.9s-5.3,14.2-12.9,14.6
			s-14.2-5.3-14.6-12.9l0,0C41.8,77.2,47.5,70.7,55.1,70.2z"/>
		<circle cx="21.2" cy="55.2" r="9.4"/>
		<circle cx="56.1" cy="84.3" r="9.4"/>
		<path d="M48.7,49.4l-14.1,3.7"/>
		<path d="M51.6,53l-16.4,4.4"/>
		<path d="M54.7,53.7l-1.9,15.9"/>
		<path d="M50.8,53.2l-2.9,19.5"/>
		<path d="M53.1,45.7c2.1-0.1,4,1.5,4.1,3.6s-1.5,4-3.6,4.1s-4-1.5-4.1-3.6
			C49.3,47.6,51,45.8,53.1,45.7L53.1,45.7z"/>
		<path d="M99.3,28.2L56,46.6L68.4,2.1"/>
		<path d="M99.3,28.7c0,0-3.6,22.1-42,22"/>
		<path d="M68.4,2.1c0,0-21.8,5.2-16.3,43.6"/>
	</g>
</svg>
